<?xml version="1.0" encoding="UTF-8" standalone="no"?>
<!-- Created with Inkscape (http://www.inkscape.org/) -->

<svg
   version="1.1"
   id="svg2"
   width="90"
   height="130"
   viewBox="0 0 90 130"
   sodipodi:docname="CPEC.svg"
   inkscape:version="1.2.2 (b0a8486541, 2022-12-01)"
   xml:space="preserve"
   xmlns:inkscape="http://www.inkscape.org/namespaces/inkscape"
   xmlns:sodipodi="http://sodipodi.sourceforge.net/DTD/sodipodi-0.dtd"
   xmlns="http://www.w3.org/2000/svg"
   xmlns:svg="http://www.w3.org/2000/svg"><defs
     id="defs6" /><sodipodi:namedview
     id="namedview4"
     pagecolor="#ffffff"
     bordercolor="#666666"
     borderopacity="1.0"
     inkscape:showpageshadow="2"
     inkscape:pageopacity="0.0"
     inkscape:pagecheckerboard="true"
     inkscape:deskcolor="#d1d1d1"
     showgrid="false"
     showguides="true"
     inkscape:zoom="3.7299188"
     inkscape:cx="18.096909"
     inkscape:cy="79.358296"
     inkscape:window-width="1920"
     inkscape:window-height="1011"
     inkscape:window-x="0"
     inkscape:window-y="0"
     inkscape:window-maximized="1"
     inkscape:current-layer="layer3"><sodipodi:guide
       position="132.44859,-86.51343"
       orientation="1,0"
       id="guide463"
       inkscape:locked="false" /><sodipodi:guide
       position="142.10479,22.63761"
       orientation="0,-1"
       id="guide465"
       inkscape:locked="false" /><sodipodi:guide
       position="126.66701,-33.4051"
       orientation="1,0"
       id="guide467"
       inkscape:locked="false" /><sodipodi:guide
       position="43.058284,28.35069"
       orientation="0,-1"
       id="guide469"
       inkscape:locked="false" /><sodipodi:guide
       position="196.55033,-3.7749"
       orientation="1,0"
       id="guide2547"
       inkscape:locked="false" /><sodipodi:guide
       position="155.42079,-44.15099"
       orientation="0,-1"
       id="guide2549"
       inkscape:locked="false" /></sodipodi:namedview><g
     inkscape:groupmode="layer"
     id="layer3"
     inkscape:label="vector 1"
     style="display:inline"
     transform="matrix(1.0027537,0,0,1.0027537,-62.441138,-39.006654)"><g
       aria-label="CPEC"
       transform="matrix(0.12331654,0,0,0.22280277,81.368763,66.854473)"
       id="text359"
       style="font-size:80.1422px;line-height:1.25;letter-spacing:0px;word-spacing:0px;display:inline;stroke-width:2.00355"><path
         d="m 156.15165,215.60245 q -1.04184,9.37664 -7.13265,14.74617 -6.09081,5.28938 -15.54759,5.28938 -7.85393,0 -13.46389,-4.00711 -5.60995,-4.00711 -8.25464,-10.2582 -2.56455,-6.33123 -2.56455,-14.02489 0,-7.85393 2.64469,-14.10502 2.64469,-6.25109 8.33479,-10.17806 5.77024,-4.00711 13.70431,-4.00711 10.01778,0 15.54759,5.52981 5.60995,5.52981 6.73194,15.70787 l -13.46389,0.88157 q -0.16028,-11.78091 -9.21635,-11.78091 -9.93763,0 -9.93763,18.51285 0,2.64469 0.16028,4.72839 0.16029,2.00355 0.80143,4.48796 0.64113,2.48441 1.68298,4.1674 1.12199,1.60284 3.12555,2.72483 2.00355,1.12199 4.80853,1.12199 4.16739,0 6.49152,-2.96526 2.40426,-2.96526 3.0454,-7.37308 z"
         style="font-family:UnYetgul;-inkscape-font-specification:UnYetgul;fill:#ffffff"
         id="path3320" /><path
         d="m 207.20222,196.68889 q 0,9.05607 -5.93052,13.94474 -1.76313,1.52271 -4.00711,2.40427 -2.24398,0.88157 -5.1291,1.20213 -2.80498,0.32057 -4.72839,0.40071 -1.92342,0.0802 -5.44967,0 -3.44612,-0.16028 -4.56811,-0.16028 v 20.35612 h -12.82275 v -54.97755 h 21.71854 q 9.29649,0 13.78445,3.12555 7.13266,4.88867 7.13266,13.70431 z m -22.11925,7.7738 q 9.13621,0 9.13621,-7.29294 0,-7.29294 -9.21635,-7.29294 h -7.61351 v 14.58588 z"
         style="font-family:UnYetgul;-inkscape-font-specification:UnYetgul;fill:#ffffff"
         id="path3322" /><path
         d="M 253.52447,234.83658 H 214.2548 v -54.97755 h 39.26967 v 10.65891 h -26.44692 v 11.13977 h 20.83697 v 10.33834 h -20.83697 v 12.18162 h 26.44692 z"
         style="font-family:UnYetgul;-inkscape-font-specification:UnYetgul;fill:#ffffff"
         id="path3324" /><path
         d="m 305.21618,215.60245 q -1.04185,9.37664 -7.13265,14.74617 -6.09081,5.28938 -15.54759,5.28938 -7.85393,0 -13.46389,-4.00711 -5.60995,-4.00711 -8.25464,-10.2582 -2.56455,-6.33123 -2.56455,-14.02489 0,-7.85393 2.64469,-14.10502 2.64469,-6.25109 8.33479,-10.17806 5.77024,-4.00711 13.70431,-4.00711 10.01778,0 15.54759,5.52981 5.60995,5.52981 6.73194,15.70787 l -13.46389,0.88157 q -0.16028,-11.78091 -9.21635,-11.78091 -9.93763,0 -9.93763,18.51285 0,2.64469 0.16028,4.72839 0.16029,2.00355 0.80143,4.48796 0.64113,2.48441 1.68298,4.1674 1.12199,1.60284 3.12555,2.72483 2.00355,1.12199 4.80853,1.12199 4.16739,0 6.49152,-2.96526 2.40426,-2.96526 3.0454,-7.37308 z"
         style="font-family:UnYetgul;-inkscape-font-specification:UnYetgul;fill:#ffffff"
         id="path3326" /></g><path
       id="path2018"
       style="display:inline;fill:#ffffff;fill-opacity:1;stroke:#ffffff;stroke-width:0.170686;stroke-linecap:square;stroke-miterlimit:0;stroke-dasharray:none;stroke-opacity:1"
       d="m 106.79622,76.727355 a 14.648528,14.44181 0 0 0 -14.648418,14.44155 14.648528,14.44181 0 0 0 14.648418,14.441875 14.648528,14.44181 0 0 0 14.64843,-14.441875 14.648528,14.44181 0 0 0 -14.64843,-14.44155 z m 0.0478,2.519371 a 12.082902,12.082902 0 0 1 12.08275,12.083076 12.082902,12.082902 0 0 1 -12.08275,12.082758 12.082902,12.082902 0 0 1 -5.69756,-1.44681 v -2.481822 a 9.9959467,9.995946 0 0 0 5.55447,1.699012 9.9959467,9.995946 0 0 0 9.28755,-6.303937 h -1.40311 a 8.682171,8.6821702 0 0 1 -7.92006,5.131337 8.682171,8.6821702 0 0 1 -5.51885,-2.013363 v -2.222499 a 7.2308167,7.2308167 0 0 0 5.68073,2.78905 7.2308167,7.2308167 0 0 0 7.23081,-7.23081 7.2308167,7.2308167 0 0 0 -7.23081,-7.230811 7.2308167,7.2308167 0 0 0 -6.78534,4.748022 h 1.02562 a 6.3132975,6.3132975 0 0 1 5.8167,-3.867116 6.3132975,6.3132975 0 0 1 6.31332,6.313322 6.3132975,6.3132975 0 0 1 -6.31332,6.31332 6.3132975,6.3132975 0 0 1 -5.73771,-3.715278 v -0.201371 h -1.234753 v 3.055167 a 8.682171,8.6821702 0 0 1 -1.92855,-5.419786 8.682171,8.6821702 0 0 1 8.682153,-8.682155 8.682171,8.6821702 0 0 1 8.02819,5.39292 h 1.48857 a 9.9959467,9.995946 0 0 0 -9.48114,-6.847822 9.9959467,9.995946 0 0 0 -9.996238,9.995902 9.9959467,9.995946 0 0 0 3.207015,7.311423 v 2.710705 A 12.082902,12.082902 0 0 1 94.760985,91.329802 12.082902,12.082902 0 0 1 106.84407,79.246726 Z" /><path
       id="path3079-6-7"
       style="display:inline;fill:#ffffff;fill-opacity:1;stroke:#ffffff;stroke-width:0.118673;stroke-linecap:square;stroke-miterlimit:0;stroke-dasharray:none;stroke-opacity:1"
       d="m 106.82892,86.684733 a 4.4485315,4.5926607 0 0 0 -4.44855,4.592623 4.4485315,4.5926607 0 0 0 4.44855,4.592625 4.4485315,4.5926607 0 0 0 4.18665,-3.072648 h -0.56784 a 3.8840568,4.0098975 0 0 1 -3.58352,2.466603 3.8840568,4.0098975 0 0 1 -3.88428,-4.009888 3.8840568,4.0098975 0 0 1 3.88428,-4.009886 3.8840568,4.0098975 0 0 1 3.68129,2.733689 h 0.55003 a 4.4485315,4.5926607 0 0 0 -4.26661,-3.293118 z" /><path
       style="display:inline;fill:#ffffff;fill-opacity:1;stroke:none;stroke-width:0.165757px;stroke-linecap:butt;stroke-linejoin:miter;stroke-opacity:1"
       d="m 104.16442,91.337185 c 0.0726,-0.324376 0.23108,-0.369609 0.39549,-0.395485 h 4.63446 c 0.17127,0.03298 0.30518,0.115515 0.3494,0.349408 -0.0351,0.14337 -0.0498,0.323408 -0.37289,0.372897 h -4.66828 c -0.17768,-0.03768 -0.28388,-0.153796 -0.33818,-0.32682 z"
       id="path3191"
       sodipodi:nodetypes="ccccccc" /></g></svg>
